<?xml version="1.0" encoding="utf-8"?>
<!-- Generator: Adobe Illustrator 15.1.0, SVG Export Plug-In . SVG Version: 6.00 Build 0)  -->
<!DOCTYPE svg PUBLIC "-//W3C//DTD SVG 1.1//EN" "http://www.w3.org/Graphics/SVG/1.1/DTD/svg11.dtd">
<svg version="1.1" id="Layer_1" xmlns="http://www.w3.org/2000/svg" xmlns:xlink="http://www.w3.org/1999/xlink" x="0px" y="0px"
	 viewBox="0 0 118 118" enable-background="new 0 0 118 118" xml:space="preserve">
<g>
	<path fill="#2A2F35" d="M112,117.7H5c-2.8,0-5-2.2-5-5l0-107c0-2.8,2.2-5,5-5h107c2.8,0,5,2.2,5,5v107
		C117,115.5,114.8,117.7,112,117.7z"/>
	<g>
		<path fill="#FFFFFF" d="M46.077,33.042c-3.961-0.216-5.545,1.872-5.545,5.4v11.881c0,4.752-1.728,7.489-5.04,8.785
			c3.312,1.224,5.04,3.96,5.04,8.786v11.665c0,3.6,1.584,5.616,5.545,5.4v5.112C39.74,90.575,34.7,87.911,34.7,79.559V67.678
			c0-4.896-2.881-6.049-6.192-6.049v-5.042c3.312,0,6.192-1.152,6.192-6.048V38.442c0-8.353,5.04-11.017,11.377-10.513V33.042z"/>
		<path fill="#FFFFFF" d="M83.299,38.442V50.54c0,4.896,2.881,6.048,6.193,6.048v5.042c-3.312,0-6.193,1.152-6.193,6.049v11.881
			c0,8.353-5.04,11.017-11.377,10.513v-5.112c3.961,0.216,5.545-1.801,5.545-5.4V67.894c0-4.825,1.729-7.562,5.04-8.786
			c-3.312-1.296-5.04-4.032-5.04-8.785V38.442c0-3.528-1.584-5.617-5.545-5.4v-5.113C78.259,27.425,83.299,30.089,83.299,38.442z"/>
	</g>
</g>
</svg>
